<svg xmlns="http://www.w3.org/2000/svg" width="31" height="30" fill="none" viewBox="0 0 31 30">
    <path fill="#888" d="M29.723 25.23l-3.224.46a15.165 15.165 0 0 0 4.088-10.406C30.587 6.857 23.727 0 15.294 0S0 6.857 0 15.284a15.14 15.14 0 0 0 3.13 9.267 15.405 15.405 0 0 0 7.916 5.42.764.764 0 0 0 .948-.558.764.764 0 0 0-.528-.896c-5.86-1.69-9.952-7.131-9.952-13.233 0-7.593 6.182-13.77 13.78-13.77 7.598 0 13.779 6.177 13.779 13.77 0 3.754-1.491 7.26-4.139 9.842v-3.99a.757.757 0 0 0-1.514 0v5.65c0 .451.415.813.864.748l5.653-.807a.764.764 0 0 0 .643-.856.765.765 0 0 0-.857-.642z"/>
    <path fill="#888" d="M15.294 14.527h-.807a1.667 1.667 0 0 1-1.666-1.664c0-.918.747-1.665 1.666-1.665h3.23a.757.757 0 1 0 0-1.513h-1.666v-.858a.757.757 0 0 0-1.514 0v.858h-.05a3.183 3.183 0 0 0-3.18 3.178 3.183 3.183 0 0 0 3.18 3.178h.807c.919 0 1.666.747 1.666 1.664 0 .918-.747 1.665-1.666 1.665h-3.23a.757.757 0 1 0 0 1.513h2.473v.858a.757.757 0 0 0 1.514 0v-.95a3.183 3.183 0 0 0 2.423-3.086 3.182 3.182 0 0 0-3.18-3.178z"/>
</svg>
