<svg xmlns="http://www.w3.org/2000/svg" width="24" height="30" fill="none" viewBox="0 0 24 30">
    <path fill="#888" d="M23.078 6.074L11.796.066a.56.56 0 0 0-.534.003L.292 6.077A.561.561 0 0 0 0 6.57v7.848A16.25 16.25 0 0 0 9.746 29.29l1.522.663a.561.561 0 0 0 .447 0l1.716-.74a16.218 16.218 0 0 0 9.944-14.95V6.57a.561.561 0 0 0-.297-.496zm-.826 8.188a15.098 15.098 0 0 1-9.26 13.919l-.004.002-1.495.644-1.298-.566a15.125 15.125 0 0 1-9.072-13.843V6.902L11.535 1.2l10.717 5.707v7.356z"/>
    <path fill="#888" d="M7.39 14.054a.562.562 0 0 0-.854.729l2.967 3.472a.562.562 0 0 0 .781.071l6.91-5.618a.56.56 0 1 0-.709-.871l-6.484 5.272-2.61-3.055z"/>
</svg>
