<svg xmlns="http://www.w3.org/2000/svg" width="42" height="30" fill="none" viewBox="0 0 42 30">
    <path fill="#888" d="M33.246 9.591H30.66l.78-8.938a.555.555 0 0 0 0-.048l.001-.004a.601.601 0 0 0-.363-.551l-.005-.003a.578.578 0 0 0-.041-.015l-.016-.005-.034-.01-.025-.005-.03-.005-.03-.004h-.005C30.882 0 30.87 0 30.86 0L30.84 0h-.008-12.303a.602.602 0 1 0 0 1.202h11.655L28.986 14.94v.004l-.302 3.466H7.782l.35-3.607h3.98a.601.601 0 1 0 0-1.203H8.247l.738-7.614h6.334a.601.601 0 1 0 0-1.203H9.103l.347-3.58h6.672c.332 0 .602-.27.602-.6A.602.602 0 0 0 16.122 0H8.904h-.001a.602.602 0 0 0-.587.474L8.314.48a.649.649 0 0 0-.007.046L8.305.54v.003l-.411 4.24H.602a.601.601 0 1 0 0 1.202h7.175l-.738 7.614H4.893a.601.601 0 1 0 0 1.203h2.03l-.402 4.146v.001l-.622 6.411v.005l-.002.025-.002.033v.001c0 .016.002.03.003.046v.015l.008.046c0 .004 0 .009.002.013l.008.034.007.024.002.007c.03.09.078.17.143.235l.003.004.02.018c.042.038.089.07.14.095l.032.016.01.003.046.017.004.001c.018.006.036.01.055.014l.007.001a.582.582 0 0 0 .113.01c0 .001 0 0 0 0h2.678A4.585 4.585 0 0 0 13.716 30a4.585 4.585 0 0 0 4.54-3.976h9.648A4.585 4.585 0 0 0 32.444 30a4.585 4.585 0 0 0 4.539-3.976H39.663l.06-.003.01-.002a.64.64 0 0 0 .046-.007c.007 0 .013-.003.02-.004a.585.585 0 0 0 .035-.01l.023-.007a.608.608 0 0 0 .03-.01l.024-.011a.705.705 0 0 0 .097-.056l.023-.017a.751.751 0 0 0 .044-.038l.017-.016a.616.616 0 0 0 .024-.026l.013-.015a.705.705 0 0 0 .024-.033l.009-.012.027-.045.002-.003a.567.567 0 0 0 .025-.052l.005-.015a.582.582 0 0 0 .014-.037l.007-.026.008-.03.005-.028.004-.024c.025-.204.496-3.981.707-6.423v-.007c.06-.704.1-1.297.1-1.66 0-4.31-3.508-7.816-7.82-7.816zm-2.69 1.203h2.46l-.314 3.607h-2.461l.314-3.607zm-16.84 18.004a3.38 3.38 0 0 1-3.377-3.375 3.38 3.38 0 0 1 3.377-3.375 3.38 3.38 0 0 1 3.377 3.375 3.38 3.38 0 0 1-3.377 3.375zm18.727 0a3.38 3.38 0 0 1-3.377-3.375 3.38 3.38 0 0 1 3.377-3.375 3.38 3.38 0 0 1 3.378 3.375 3.38 3.38 0 0 1-3.378 3.375zm6.687-3.977h-2.147a4.585 4.585 0 0 0-4.54-3.976 4.585 4.585 0 0 0-4.539 3.976h-9.649a4.585 4.585 0 0 0-4.539-3.976 4.585 4.585 0 0 0-4.54 3.976H7.16l.505-5.21h21.571l.06-.003.011-.002a.607.607 0 0 0 .047-.007l.02-.005c.012-.003.024-.005.035-.009l.024-.008.03-.01a.549.549 0 0 0 .024-.012l.027-.013a.65.65 0 0 0 .049-.028l.022-.016a.783.783 0 0 0 .066-.055l.018-.018a.671.671 0 0 0 .1-.137l.013-.028.01-.024c.005-.01.008-.019.011-.029l.009-.026.007-.028.007-.029.004-.028.004-.03.001-.004.301-3.46h3.11c1.843 0 2.674.955 3.554 1.966.726.833 1.537 1.764 2.914 1.99-.175 1.85-.457 4.224-.584 5.263zm.687-6.467c-.894-.182-1.444-.81-2.11-1.575-.833-.957-1.85-2.125-3.8-2.342l.31-3.571c3.19.471 5.646 3.225 5.646 6.541 0 .225-.017.553-.046.947z"/>
    <path fill="#888" d="M13.717 23.218a2.207 2.207 0 0 0-2.206 2.205c0 1.215.99 2.204 2.206 2.204a2.207 2.207 0 0 0 2.205-2.204c0-1.216-.99-2.205-2.205-2.205zm0 3.206c-.553 0-1.003-.449-1.003-1.001a1.003 1.003 0 0 1 2.005 0c0 .552-.45 1.002-1.002 1.002zM32.444 23.218a2.207 2.207 0 0 0-2.206 2.205c0 1.215.99 2.204 2.206 2.204a2.207 2.207 0 0 0 2.205-2.204c0-1.216-.99-2.205-2.206-2.205zm0 3.206c-.553 0-1.003-.449-1.003-1.001a1.003 1.003 0 0 1 2.005 0c0 .552-.45 1.002-1.002 1.002zM5.695 9.592H2.754a.602.602 0 1 0 0 1.203h2.94a.601.601 0 1 0 0-1.203z"/>
</svg>
